<?xml version="1.0" standalone="no"?><!DOCTYPE svg PUBLIC "-//W3C//DTD SVG 1.1//EN" "http://www.w3.org/Graphics/SVG/1.1/DTD/svg11.dtd"><svg t="1521472110895" class="icon" style="" viewBox="0 0 1024 1024" version="1.1" xmlns="http://www.w3.org/2000/svg" p-id="3274" xmlns:xlink="http://www.w3.org/1999/xlink" width="200" height="200"><defs><style type="text/css"></style></defs><path d="M512.000512 357.62812c-82.496899 0-149.3454 69.094658-149.3454 154.37188s66.848501 154.355507 149.3454 154.355507c82.495876 0 149.3454-69.078285 149.3454-154.355507S594.496387 357.62812 512.000512 357.62812zM512.000512 589.178777c-41.180911 0-74.673723-34.626635-74.673723-77.178777 0-42.569538 33.491789-77.178777 74.673723-77.178777 41.177841 0 74.6727 34.609239 74.6727 77.178777C586.673212 554.552142 553.178353 589.178777 512.000512 589.178777zM512.000512 151.813614c-247.475348 0-423.140183 231.549633-448.038246 360.186386C88.860329 640.635729 264.525164 872.187409 512.000512 872.187409c247.474324 0 423.140183-231.550657 448.036199-360.186386C935.140695 383.363248 759.474836 151.813614 512.000512 151.813614zM512.000512 795.010679c-195.381899 0-340.764034-178.567955-371.134739-283.009655 30.370705-104.425328 175.75284-283.008632 371.134739-283.008632s340.761987 178.584328 371.133715 283.008632C852.762499 616.442724 707.381387 795.010679 512.000512 795.010679z" p-id="3275" fill="#bfbfbf"></path></svg>