<?xml version="1.0" standalone="no"?><!DOCTYPE svg PUBLIC "-//W3C//DTD SVG 1.1//EN" "http://www.w3.org/Graphics/SVG/1.1/DTD/svg11.dtd"><svg t="1521472068732" class="icon" style="" viewBox="0 0 1024 1024" version="1.1" xmlns="http://www.w3.org/2000/svg" p-id="2408" xmlns:xlink="http://www.w3.org/1999/xlink" width="200" height="200"><defs><style type="text/css"></style></defs><path d="M728.184 974.092c-3.299 0-6.636-0.93-9.601-2.875-32.225-21.147-84.965-23.217-88.267-23.325l-19.733 0.020c-0.009 0-0.018 0-0.027 0-2.151 0-19.581-0.41-32.821-13.628-6.268-6.258-13.74-17.684-13.74-36.571v-104.466c-0.183-12.64-3.745-21.944-10.888-28.439-12.646-11.499-34.883-12.425-42.388-11.808l-0.733 0.048c-16.813 0.746-28.808 5.213-35.65 13.273-8.352 9.84-7.274 23.173-7.152 24.421l0.219 1.326-0.059 1.055v104.588c0 18.888-7.473 30.313-13.741 36.571-13.242 13.22-30.674 13.628-32.752 13.628-0.008 0-0.017 0-0.025 0h-208.111c-24.859 0-45.082-20.223-45.082-45.082l0.020-376.762c0.040-4.305-0.798-7.352-2.489-9.056-2.512-2.532-7.353-3.154-9.074-3.186l-0.479 0.033-0.029-0.030c-26.125 0-47.38-21.252-47.38-47.377 0-11.456 4.146-22.516 11.674-31.138l0.801-0.858 362.718-363.266c22.394-22.963 49.111-14.073 61.622-2.475l0.481 0.462 365.963 366.139c7.525 8.62 11.668 19.679 11.668 31.138 0 25.254-17.587 43.987-43.968 47.115l-0.246 0.072-1.735 0.152c-6.16 0.536-13.502 3.129-13.502 12.441v370.391l0.019 0.109v1.488c0 12.056-3.302 23.381-9.3 31.888-8.095 11.482-20.803 17.806-35.781 17.806l-34.352-0.020c-9.681 0-17.528-7.848-17.528-17.528s7.848-17.528 17.528-17.528l34.413 0.020c4.999-0.016 6.344-1.924 7.068-2.95 1.675-2.376 2.726-6.285 2.877-10.61v-373.067c0-24.953 17.848-44.111 43.638-47.171l0.214-0.063 1.712-0.154c9.215-0.826 13.887-4.995 13.887-12.391 0-3.547-1.418-6.116-2.723-7.73l-364.166-364.283c-6.418-5.236-10.833-0.689-12.732 1.267l-0.172 0.174-362.29 362.839c-1.31 1.615-2.73 4.186-2.73 7.732 0 6.751 5.46 12.252 12.197 12.32 3.656-0.056 21.113 0.41 34.091 13.050 6.085 5.926 13.302 16.717 13.163 34.478v377.162c0.326 5.235 4.689 9.395 10.006 9.395h207.909c1.1-0.063 4.211-0.552 6.7-2.169 1.357-0.881 4.963-3.222 4.963-12.975v-103.593c-0.653-6.513-1.642-30.038 14.866-49.942 13.329-16.069 33.823-24.862 60.915-26.135 5.992-0.483 42.855-2.401 68.408 20.633 14.682 13.236 22.276 31.477 22.571 54.218l0.001 0.229v104.588c0 5.518 1.162 9.475 3.454 11.764 2.979 2.976 7.905 3.381 7.951 3.381l3.474-0.020 17.036 0.004c2.645 0.059 65.262 1.776 106.852 29.068 8.093 5.311 10.348 16.177 5.037 24.272-3.367 5.129-8.964 7.913-14.671 7.913z" p-id="2409" fill="#8a8a8a"></path></svg>